<svg width="602" height="522" viewBox="0 0 602 522" fill="none" xmlns="http://www.w3.org/2000/svg">
<mask id="mask0_4819_26390" style="mask-type:luminance" maskUnits="userSpaceOnUse" x="-112" y="0" width="714" height="545">
<path d="M-112 0H602V545H-112V0Z" fill="white"/>
</mask>
<g mask="url(#mask0_4819_26390)">
<g opacity="0.2">
<path d="M311.023 257.902L354.395 227.381L354.396 177.622L478.579 90.2344L478.316 89.6787L353.869 177.253L353.868 227.012L310.76 257.346L311.023 257.902Z" fill="#42E8DF"/>
<path d="M366.941 168.61L366.942 123.047L419.844 85.8203L419.58 85.2646L366.416 122.677L366.414 168.61H366.941Z" fill="#42E8DF"/>
<path d="M319.154 263.625L361.194 234.042L434.52 234.041L498.791 188.814L498.65 188.172L434.378 233.399L361.052 233.4L318.892 263.07L319.154 263.625Z" fill="#42E8DF"/>
<path d="M256.636 263.624L256.899 263.069L172.059 203.366L121.543 203.367L89.97 181.15V145.102H89.4435V181.52L89.575 181.613L121.402 204.009L171.918 204.007L256.636 263.624Z" fill="#42E8DF"/>
<path d="M266.776 256.491L267.039 255.934L181.25 195.565L181.252 159.597L181.12 159.504L150.222 137.761L149.959 138.316L180.725 159.967L180.724 195.935L180.856 196.028L266.776 256.491Z" fill="#42E8DF"/>
<path d="M277.4 249.014L277.664 248.458L227.23 212.968V182.84L314.918 121.134L314.655 120.578L226.704 182.47V213.338L226.836 213.431L277.4 249.014Z" fill="#42E8DF"/>
<path d="M4.49776 386.164H82.384L138.461 346.701H184.837L248.767 301.713L248.503 301.157L184.696 346.06H138.32L82.2426 385.522H4.63857L-29.6104 361.422L-29.874 361.978L4.49776 386.164Z" fill="#42E8DF"/>
<path d="M100.12 358.698L127.812 339.211H181.035L241.544 296.631L241.28 296.075L180.894 338.569H127.671L99.8574 358.142L100.12 358.698Z" fill="#42E8DF"/>
<path d="M213.622 316.094L213.885 315.538L169.441 284.262H137.556L116.966 298.752L117.229 299.308L137.697 284.904H169.3L213.622 316.094Z" fill="#42E8DF"/>
<path d="M93.1844 393.946L118.124 376.394V361.098H117.597V376.024L92.9209 393.39L93.1844 393.946Z" fill="#42E8DF"/>
<path d="M249.065 167.425H269.237L305.296 142.052L305.033 141.496L269.095 166.784H249.065V167.425Z" fill="#42E8DF"/>
<path d="M267.619 241.945H268.146V225.708L268.014 225.616L243.197 208.152V191.383H242.671V208.522L242.802 208.614L267.619 226.078V241.945Z" fill="#42E8DF"/>
<path d="M407.598 422.231L407.861 421.674L364.656 391.271L364.657 341.512L364.525 341.419L317.298 308.186L317.036 308.741L364.13 341.881L364.129 391.64L364.262 391.734L407.598 422.231Z" fill="#42E8DF"/>
<path d="M378.326 442.831L378.589 442.276L361.614 430.33V408.393L361.482 408.301L344.887 396.623L344.888 338.302L344.756 338.209L309.695 313.536L309.432 314.092L344.362 338.672L344.361 396.992L344.492 397.085L361.088 408.763V430.7L361.219 430.793L378.326 442.831Z" fill="#42E8DF"/>
<path d="M512.34 357.086L512.603 356.529L498.9 346.884H469.922L417.688 310.127L371.762 310.128L343.151 289.993L342.887 290.55L371.621 310.77L417.547 310.769L469.781 347.526H498.758L512.34 357.086Z" fill="#42E8DF"/>
<path d="M482.731 331.907L482.994 331.351L464.685 318.468H429.471V319.11H464.544L482.731 331.907Z" fill="#42E8DF"/>
<path d="M474.612 427.507L474.875 426.951L407.826 379.766V355.007L407.693 354.914L329.294 299.744L329.031 300.3L407.299 355.377V380.136L407.43 380.229L474.612 427.507Z" fill="#42E8DF"/>
<path d="M473.582 428.87C474.5 429.517 475.99 429.517 476.909 428.87C477.828 428.224 477.828 427.175 476.909 426.529C475.99 425.882 474.5 425.882 473.582 426.529C472.664 427.175 472.664 428.224 473.582 428.87Z" fill="#42E8DF"/>
<path d="M405.635 423.527C406.553 424.173 408.043 424.173 408.961 423.527C409.88 422.88 409.88 421.832 408.961 421.185C408.043 420.539 406.553 420.539 405.635 421.185C404.716 421.832 404.716 422.88 405.635 423.527Z" fill="#42E8DF"/>
<path d="M377.688 444.232C378.607 444.878 380.096 444.878 381.015 444.232C381.934 443.585 381.934 442.537 381.015 441.89C380.096 441.244 378.607 441.244 377.688 441.89C376.77 442.537 376.77 443.585 377.688 444.232Z" fill="#42E8DF"/>
<path d="M327.56 269.539L357.819 248.247L442.78 248.245L504.236 204.998L503.973 204.442L442.638 247.604L357.677 247.605L327.297 268.983L327.56 269.539Z" fill="#42E8DF"/>
<path d="M396.258 260.476L443.164 260.474V259.832L396.399 259.834L379.084 247.647L378.821 248.203L396.258 260.476Z" fill="#42E8DF"/>
<path d="M270.587 479.74L270.588 444.626L270.456 444.533L202.896 396.991L202.897 359.406L266.824 314.422L266.561 313.865L202.37 359.037L202.369 397.361L202.501 397.455L270.061 444.997L270.06 479.74H270.587Z" fill="#42E8DF"/>
<path d="M283.855 435.208L284.118 434.651L260.678 418.156H232.986V418.798H260.537L283.855 435.208Z" fill="#42E8DF"/>
<path d="M228.859 353.917L275.905 320.811L275.642 320.255L228.597 353.36L228.859 353.917Z" fill="#42E8DF"/>
<path d="M326.638 437.068L326.64 339.64L326.509 339.546L299.62 320.625L299.357 321.181L326.114 340.009L326.112 437.068H326.638Z" fill="#42E8DF"/>
<path d="M324.536 439.556C325.454 440.203 326.943 440.203 327.862 439.556C328.781 438.909 328.781 437.861 327.862 437.214C326.943 436.568 325.454 436.568 324.536 437.214C323.617 437.861 323.617 438.909 324.536 439.556Z" fill="#42E8DF"/>
<path d="M312.763 423.024L312.764 389.39L326.508 379.718L326.245 379.162L312.238 389.02L312.236 423.024H312.763Z" fill="#42E8DF"/>
<path d="M500.779 301.015L501.042 300.459L458.75 270.699H393.619L372.021 255.501H361.379L334.757 274.235L335.021 274.79L361.52 256.143H371.88L393.478 271.341H458.609L500.779 301.015Z" fill="#42E8DF"/>
<path d="M213.046 365.36H230.171L284.692 326.994L284.429 326.438L230.03 364.718H213.046V365.36Z" fill="#42E8DF"/>
<path d="M259.171 381.268L303.926 349.775V336.364L303.794 336.271L290.592 326.979L290.329 327.536L303.399 336.733V349.405L258.908 380.713L259.171 381.268Z" fill="#42E8DF"/>
<path d="M256.226 371.503L276.076 357.534H292.709V356.893H275.935L255.963 370.947L256.226 371.503Z" fill="#42E8DF"/>
<path d="M256.581 401.516L277.337 386.91V375.322L300.658 358.912V351.889H300.132V358.542L276.811 374.953V386.54L256.319 400.96L256.581 401.516Z" fill="#42E8DF"/>
<path d="M254.43 372.397C255.349 373.043 256.838 373.043 257.757 372.397C258.676 371.75 258.676 370.702 257.757 370.055C256.838 369.409 255.349 369.409 254.43 370.055C253.512 370.702 253.512 371.75 254.43 372.397Z" fill="#42E8DF"/>
<path d="M257.317 382.119C258.236 382.766 259.725 382.766 260.643 382.119C261.562 381.473 261.562 380.424 260.643 379.778C259.725 379.131 258.236 379.131 257.317 379.778C256.399 380.424 256.398 381.473 257.317 382.119Z" fill="#42E8DF"/>
<path d="M304.933 376.501C305.851 377.147 307.341 377.147 308.259 376.501C309.178 375.854 309.178 374.806 308.26 374.16C307.341 373.513 305.852 373.513 304.933 374.16C304.014 374.806 304.014 375.854 304.933 376.501Z" fill="#42E8DF"/>
<path d="M404.786 288.993C405.704 289.639 407.194 289.639 408.112 288.993C409.031 288.346 409.031 287.298 408.112 286.652C407.194 286.005 405.704 286.005 404.786 286.652C403.868 287.298 403.868 288.346 404.786 288.993Z" fill="#42E8DF"/>
<path d="M469.176 306.508C470.095 307.155 471.585 307.155 472.503 306.508C473.422 305.862 473.422 304.814 472.503 304.168C471.585 303.521 470.095 303.521 469.176 304.168C468.258 304.814 468.258 305.862 469.176 306.508Z" fill="#42E8DF"/>
<path d="M384.381 276.974C385.3 277.621 386.79 277.621 387.708 276.974C388.626 276.328 388.626 275.28 387.708 274.633C386.79 273.987 385.3 273.987 384.381 274.633C383.463 275.28 383.463 276.328 384.381 276.974Z" fill="#42E8DF"/>
<path d="M377.105 296.431C378.024 297.078 379.513 297.078 380.432 296.431C381.351 295.785 381.351 294.737 380.432 294.09C379.514 293.444 378.024 293.444 377.105 294.09C376.187 294.737 376.187 295.785 377.105 296.431Z" fill="#42E8DF"/>
<path d="M268.66 480.911C269.579 481.557 271.069 481.557 271.987 480.911C272.906 480.264 272.906 479.215 271.987 478.569C271.069 477.922 269.579 477.922 268.66 478.569C267.742 479.215 267.742 480.264 268.66 480.911Z" fill="#42E8DF"/>
<path d="M282.324 436.101C283.242 436.747 284.732 436.747 285.65 436.101C286.569 435.454 286.569 434.406 285.65 433.759C284.732 433.113 283.242 433.113 282.324 433.759C281.405 434.406 281.405 435.454 282.324 436.101Z" fill="#42E8DF"/>
<path d="M60.4555 476.87C61.3739 477.517 62.8633 477.517 63.7816 476.87C64.7006 476.224 64.7011 475.175 63.7827 474.529C62.8638 473.882 61.3739 473.882 60.4555 474.529C59.5371 475.175 59.5371 476.224 60.4555 476.87Z" fill="#42E8DF"/>
<path d="M141.733 478.956C142.652 479.602 144.141 479.602 145.059 478.956C145.978 478.309 145.978 477.261 145.059 476.615C144.141 475.968 142.652 475.968 141.733 476.615C140.815 477.261 140.815 478.309 141.733 478.956Z" fill="#42E8DF"/>
<path d="M166.089 411.422C167.008 412.068 168.497 412.068 169.415 411.422C170.334 410.775 170.334 409.727 169.415 409.081C168.497 408.434 167.008 408.434 166.089 409.081C165.171 409.727 165.171 410.775 166.089 411.422Z" fill="#42E8DF"/>
<path d="M441.5 261.324C442.419 261.97 443.908 261.97 444.826 261.324C445.745 260.677 445.745 259.629 444.826 258.983C443.908 258.336 442.419 258.336 441.5 258.983C440.582 259.629 440.581 260.677 441.5 261.324Z" fill="#42E8DF"/>
<path d="M502.441 205.891C503.359 206.538 504.849 206.538 505.768 205.891C506.686 205.245 506.686 204.197 505.768 203.55C504.849 202.904 503.359 202.904 502.441 203.55C501.522 204.197 501.522 205.245 502.441 205.891Z" fill="#42E8DF"/>
<path d="M498.018 188.927C498.936 189.573 500.426 189.573 501.344 188.927C502.263 188.28 502.263 187.233 501.344 186.586C500.426 185.94 498.936 185.94 498.018 186.586C497.099 187.233 497.099 188.28 498.018 188.927Z" fill="#42E8DF"/>
<path d="M418.43 86.9793C419.348 87.6258 420.838 87.6258 421.757 86.9793C422.675 86.3328 422.675 85.2855 421.757 84.6397C420.838 83.9925 419.348 83.9925 418.43 84.6397C417.511 85.2855 417.511 86.3328 418.43 86.9793Z" fill="#42E8DF"/>
<path d="M254.786 402.409C255.705 403.055 257.194 403.055 258.112 402.409C259.031 401.762 259.031 400.713 258.112 400.067C257.194 399.42 255.705 399.42 254.786 400.067C253.868 400.713 253.868 401.762 254.786 402.409Z" fill="#42E8DF"/>
<path d="M310.836 424.195C311.754 424.841 313.244 424.841 314.162 424.195C315.081 423.548 315.081 422.5 314.162 421.853C313.244 421.207 311.754 421.207 310.836 421.853C309.918 422.5 309.918 423.548 310.836 424.195Z" fill="#42E8DF"/>
<path d="M481.199 332.799C482.117 333.446 483.607 333.446 484.526 332.799C485.444 332.153 485.444 331.105 484.526 330.459C483.608 329.812 482.117 329.812 481.199 330.459C480.28 331.105 480.28 332.153 481.199 332.799Z" fill="#42E8DF"/>
<path d="M439.106 354.531C440.024 355.177 441.513 355.177 442.432 354.531C443.351 353.884 443.351 352.836 442.432 352.189C441.513 351.542 440.024 351.542 439.106 352.189C438.187 352.836 438.187 353.884 439.106 354.531Z" fill="#42E8DF"/>
<path d="M499.21 301.934C500.128 302.581 501.618 302.581 502.537 301.934C503.455 301.288 503.455 300.24 502.537 299.593C501.618 298.947 500.129 298.947 499.21 299.593C498.291 300.24 498.291 301.288 499.21 301.934Z" fill="#42E8DF"/>
<path d="M211.382 366.21C212.3 366.857 213.79 366.857 214.708 366.21C215.627 365.564 215.627 364.515 214.709 363.869C213.79 363.222 212.3 363.222 211.382 363.869C210.463 364.515 210.463 365.564 211.382 366.21Z" fill="#42E8DF"/>
<path d="M116.506 299.445C117.425 300.092 118.914 300.092 119.833 299.445C120.751 298.799 120.751 297.751 119.833 297.105C118.914 296.458 117.425 296.458 116.506 297.105C115.588 297.751 115.588 298.799 116.506 299.445Z" fill="#42E8DF"/>
<path d="M156.668 258.054C157.586 258.701 159.077 258.701 159.995 258.054C160.914 257.408 160.914 256.36 159.995 255.713C159.077 255.067 157.587 255.067 156.668 255.713C155.75 256.36 155.75 257.408 156.668 258.054Z" fill="#42E8DF"/>
<path d="M179.373 272.393C180.292 273.039 181.782 273.039 182.701 272.393C183.619 271.746 183.619 270.698 182.701 270.052C181.782 269.406 180.292 269.406 179.373 270.052C178.455 270.698 178.455 271.746 179.373 272.393Z" fill="#42E8DF"/>
<path d="M201.186 249.955C202.105 250.601 203.595 250.601 204.514 249.955C205.432 249.308 205.432 248.26 204.514 247.614C203.595 246.967 202.105 246.967 201.186 247.614C200.268 248.26 200.268 249.308 201.186 249.955Z" fill="#42E8DF"/>
<path d="M241.271 192.553C242.189 193.199 243.679 193.199 244.598 192.553C245.516 191.906 245.516 190.859 244.598 190.212C243.679 189.566 242.189 189.566 241.271 190.212C240.352 190.859 240.352 191.906 241.271 192.553Z" fill="#42E8DF"/>
<path d="M87.5568 146.614C88.4752 147.261 89.9646 147.261 90.883 146.614C91.8019 145.968 91.8024 144.92 90.8841 144.274C89.9651 143.627 88.4752 143.627 87.5568 144.274C86.6384 144.92 86.6384 145.968 87.5568 146.614Z" fill="#42E8DF"/>
<path d="M148.427 139.209C149.345 139.855 150.836 139.855 151.754 139.209C152.673 138.562 152.673 137.515 151.754 136.869C150.836 136.222 149.346 136.222 148.427 136.869C147.509 137.515 147.509 138.562 148.427 139.209Z" fill="#42E8DF"/>
<path d="M269.263 196.497C270.181 197.144 271.671 197.144 272.59 196.497C273.508 195.851 273.508 194.803 272.59 194.157C271.671 193.51 270.181 193.51 269.263 194.157C268.344 194.803 268.344 195.851 269.263 196.497Z" fill="#42E8DF"/>
<path d="M272.351 175.598C273.27 176.244 274.759 176.244 275.677 175.598C276.596 174.951 276.596 173.903 275.677 173.257C274.759 172.611 273.27 172.611 272.351 173.257C271.433 173.903 271.432 174.951 272.351 175.598Z" fill="#42E8DF"/>
<path d="M320.543 150.924C321.462 151.57 322.951 151.57 323.869 150.924C324.788 150.277 324.788 149.23 323.869 148.584C322.951 147.937 321.462 147.937 320.543 148.584C319.625 149.23 319.625 150.277 320.543 150.924Z" fill="#42E8DF"/>
<path d="M303.5 142.943C304.418 143.59 305.908 143.59 306.826 142.943C307.745 142.297 307.745 141.25 306.826 140.603C305.908 139.957 304.418 139.957 303.5 140.603C302.581 141.25 302.581 142.297 303.5 142.943Z" fill="#42E8DF"/>
<path d="M476.784 91.126C477.703 91.7725 479.193 91.7725 480.111 91.126C481.03 90.4794 481.03 89.4315 480.111 88.7857C479.193 88.1392 477.703 88.1392 476.784 88.7857C475.866 89.4315 475.866 90.4794 476.784 91.126Z" fill="#42E8DF"/>
<path d="M313.123 122.026C314.042 122.673 315.532 122.673 316.451 122.026C317.369 121.38 317.369 120.333 316.451 119.686C315.532 119.04 314.042 119.04 313.123 119.686C312.205 120.333 312.205 121.38 313.123 122.026Z" fill="#42E8DF"/>
<path d="M210.747 296.155C211.665 296.801 213.155 296.801 214.073 296.155C214.992 295.508 214.992 294.461 214.073 293.814C213.155 293.167 211.665 293.167 210.747 293.814C209.828 294.461 209.828 295.508 210.747 296.155Z" fill="#42E8DF"/>
<path d="M322.958 226.862C323.877 227.509 325.366 227.509 326.284 226.862C327.203 226.215 327.203 225.168 326.284 224.521C325.366 223.875 323.877 223.875 322.958 224.521C322.039 225.168 322.039 226.215 322.958 226.862Z" fill="#42E8DF"/>
<path d="M419.663 186.03C420.582 186.677 422.071 186.677 422.99 186.03C423.908 185.384 423.908 184.336 422.99 183.69C422.072 183.043 420.582 183.043 419.663 183.69C418.745 184.336 418.745 185.384 419.663 186.03Z" fill="#42E8DF"/>
<path d="M490.39 141.498C491.309 142.145 492.799 142.145 493.718 141.498C494.636 140.852 494.636 139.804 493.718 139.158C492.799 138.511 491.309 138.511 490.39 139.158C489.472 139.804 489.472 140.852 490.39 141.498Z" fill="#42E8DF"/>
<path d="M468.277 134.298C469.196 134.944 470.686 134.944 471.604 134.298C472.523 133.651 472.523 132.604 471.604 131.958C470.686 131.311 469.196 131.311 468.277 131.958C467.359 132.604 467.359 133.651 468.277 134.298Z" fill="#42E8DF"/>
<path d="M170.986 299.095C171.904 299.742 173.394 299.742 174.312 299.095C175.231 298.449 175.231 297.401 174.313 296.754C173.395 296.108 171.904 296.108 170.986 296.754C170.067 297.401 170.067 298.449 170.986 299.095Z" fill="#42E8DF"/>
<path d="M91.3891 394.837C92.3075 395.484 93.7968 395.484 94.7152 394.837C95.6342 394.191 95.6347 393.142 94.7163 392.496C93.7974 391.849 92.3075 391.849 91.3891 392.496C90.4707 393.142 90.4707 394.191 91.3891 394.837Z" fill="#42E8DF"/>
<path d="M59.41 292.544C60.3284 293.19 61.8183 293.19 62.7372 292.544C63.6556 291.897 63.6556 290.849 62.7372 290.203C61.8188 289.556 60.3284 289.556 59.41 290.203C58.4916 290.849 58.4916 291.897 59.41 292.544Z" fill="#42E8DF"/>
<path d="M98.326 359.59C99.2449 360.237 100.735 360.237 101.653 359.59C102.572 358.944 102.572 357.895 101.653 357.249C100.735 356.602 99.2449 356.602 98.326 357.249C97.4076 357.895 97.4076 358.944 98.326 359.59Z" fill="#42E8DF"/>
<path d="M227.064 354.81C227.982 355.457 229.472 355.457 230.39 354.81C231.309 354.164 231.309 353.116 230.39 352.469C229.472 351.823 227.982 351.823 227.064 352.469C226.146 353.116 226.146 354.164 227.064 354.81Z" fill="#42E8DF"/>
<path d="M306.787 375.65L326.507 361.771L326.244 361.216L306.524 375.093L306.787 375.65Z" fill="#42E8DF"/>
<path d="M222.19 302.191H233.571V301.549H222.331L212.274 294.472L212.011 295.027L222.19 302.191Z" fill="#42E8DF"/>
<path d="M158.463 257.161L185.98 237.797H204.496L228.902 254.972H244.408V254.33H229.043L204.637 237.155H185.838L158.201 256.605L158.463 257.161Z" fill="#42E8DF"/>
<path d="M230.45 282.054L230.713 281.498L202.991 261.99H193.631L181.372 270.617L181.635 271.173L193.772 262.632H202.85L230.45 282.054Z" fill="#42E8DF"/>
<path d="M222.758 276.455H223.285V262.794L223.153 262.702L202.982 248.505L202.718 249.061L222.758 263.164V276.455Z" fill="#42E8DF"/>
<path d="M362.776 304.495H383.283L406.581 288.101L406.318 287.545L383.141 303.853H362.776V304.495Z" fill="#42E8DF"/>
<path d="M62.2495 475.978L133.094 426.125V394.558L256.897 307.437L256.635 306.881L132.567 394.188V425.755L61.987 475.422L62.2495 475.978Z" fill="#42E8DF"/>
<path d="M385.96 276.049L386.224 275.493L368.552 263.059L361.285 263.06L351.924 269.646H341.347V270.288H352.065L361.426 263.702L368.411 263.7L385.96 276.049Z" fill="#42E8DF"/>
<path d="M303.8 252.821L337.335 229.221L337.336 201.945L337.204 201.851L299.524 175.337V166.086L322.338 150.032L322.074 149.476L298.998 165.717V175.707L299.129 175.8L336.809 202.314L336.808 228.851L303.537 252.266L303.8 252.821Z" fill="#42E8DF"/>
<path d="M311.242 247.027H311.769V235.107L324.753 225.97L324.49 225.414L311.242 234.738V247.027Z" fill="#42E8DF"/>
<path d="M380.114 233.999L459.396 178.206V163.68L492.09 140.674L491.827 140.117L458.869 163.31V177.838L379.851 233.443L380.114 233.999Z" fill="#42E8DF"/>
<path d="M408.613 193.621H409.139V176.283L470.073 133.406L469.809 132.85L408.613 175.913V193.621Z" fill="#42E8DF"/>
<path d="M360.99 233.814L401.06 205.616V199.491L421.457 185.138L421.195 184.582L400.535 199.122V205.247L360.727 233.258L360.99 233.814Z" fill="#42E8DF"/>
<path d="M167.884 410.53L191.587 393.849V375.39L202.766 367.525L202.503 366.969L191.06 375.02V393.481L167.621 409.974L167.884 410.53Z" fill="#42E8DF"/>
<path d="M188.706 309.595H204.44V308.953H188.847L172.781 297.646L172.518 298.202L188.706 309.595Z" fill="#42E8DF"/>
<path d="M118.69 332.289H190.802V331.647H118.831L61.7743 291.495L61.5108 292.051L118.69 332.289Z" fill="#42E8DF"/>
<path d="M294.187 246.054H294.714V211.695L294.581 211.602L271.438 195.316L271.174 195.872L294.187 212.066V246.054Z" fill="#42E8DF"/>
<path d="M294.582 226.17L311.605 214.191V200.51L311.474 200.416L274.146 174.149L273.883 174.705L311.079 200.88V213.82L294.319 225.615L294.582 226.17Z" fill="#42E8DF"/>
<path d="M440.637 353.638L440.9 353.082L398.774 323.438H362.893V324.079H398.634L440.637 353.638Z" fill="#42E8DF"/>
<path d="M445.451 305.659H470.84V305.017H445.592L434.083 296.918L393.067 296.919V297.561L433.942 297.56L445.451 305.659Z" fill="#42E8DF"/>
<path d="M378.498 295.44L378.761 294.885L359.571 281.38H345.106V282.022H359.43L378.498 295.44Z" fill="#42E8DF"/>
<path d="M143.528 478.063L171.864 458.124V428.528L209.394 402.119L209.13 401.563L171.338 428.158V457.754L143.265 477.507L143.528 478.063Z" fill="#42E8DF"/>
<path d="M511.94 358.074C512.858 358.72 514.348 358.72 515.266 358.074C516.185 357.427 516.185 356.378 515.266 355.732C514.348 355.085 512.858 355.085 511.94 355.732C511.021 356.378 511.021 357.427 511.94 358.074Z" fill="#42E8DF"/>
</g>
<mask id="mask1_4819_26390" style="mask-type:luminance" maskUnits="userSpaceOnUse" x="-38" y="267" width="318" height="187">
<path d="M177.189 267.49L279.659 314.549L-32.4676 453.47L-37.6732 341.626L177.189 267.49Z" fill="white"/>
</mask>
<g mask="url(#mask1_4819_26390)">
<path d="M4.49702 386.163H82.3833L138.461 346.7H184.837L248.766 301.712L248.503 301.156L184.696 346.059H138.32L82.2419 385.521H4.63783L-29.6111 361.421L-29.8747 361.977L4.49702 386.163Z" fill="#42E8DF"/>
</g>
<mask id="mask2_4819_26390" style="mask-type:luminance" maskUnits="userSpaceOnUse" x="46" y="126" width="156" height="190">
<path d="M90.1997 126.879L201.489 187.847L183.184 315.908L46.0719 171.909L90.1997 126.879Z" fill="white"/>
</mask>
<g mask="url(#mask2_4819_26390)">
<path d="M256.636 263.625L256.899 263.069L172.059 203.366L121.543 203.368L89.97 181.15V145.102H89.4435V181.52L89.575 181.613L121.402 204.01L171.918 204.008L256.636 263.625Z" fill="#42E8DF"/>
<path d="M87.5568 146.614C88.4752 147.261 89.9646 147.261 90.883 146.614C91.8019 145.968 91.8024 144.92 90.8841 144.274C89.9651 143.627 88.4752 143.627 87.5568 144.274C86.6384 144.92 86.6384 145.968 87.5568 146.614Z" fill="#42E8DF"/>
</g>
<mask id="mask3_4819_26390" style="mask-type:luminance" maskUnits="userSpaceOnUse" x="311" y="281" width="193" height="175">
<path d="M328.291 281.161L503.914 429.072L474.812 455.12L311.244 293.183L328.291 281.161Z" fill="white"/>
</mask>
<g mask="url(#mask3_4819_26390)">
<path d="M474.612 427.507L474.875 426.951L407.826 379.766V355.007L407.693 354.914L329.294 299.744L329.031 300.3L407.299 355.377V380.136L407.43 380.229L474.612 427.507Z" fill="#42E8DF"/>
<path d="M473.582 428.869C474.5 429.516 475.99 429.516 476.909 428.869C477.828 428.223 477.828 427.174 476.909 426.528C475.99 425.881 474.5 425.881 473.582 426.528C472.664 427.174 472.664 428.223 473.582 428.869Z" fill="#42E8DF"/>
</g>
<mask id="mask4_4819_26390" style="mask-type:luminance" maskUnits="userSpaceOnUse" x="315" y="48" width="176" height="197">
<path d="M464.187 48.4219L490.215 96.816L343.026 244.754L315.354 197.028L464.187 48.4219Z" fill="white"/>
</mask>
<g mask="url(#mask4_4819_26390)">
<path d="M311.024 257.903L354.395 227.381L354.396 177.622L478.579 90.2344L478.316 89.6787L353.87 177.253L353.869 227.012L310.76 257.346L311.024 257.903Z" fill="#42E8DF"/>
<path d="M476.784 91.126C477.703 91.7725 479.193 91.7725 480.112 91.126C481.03 90.4794 481.03 89.4315 480.112 88.7857C479.193 88.1392 477.703 88.1392 476.784 88.7857C475.866 89.4315 475.866 90.4794 476.784 91.126Z" fill="#42E8DF"/>
</g>
<mask id="mask5_4819_26390" style="mask-type:luminance" maskUnits="userSpaceOnUse" x="200" y="309" width="76" height="178">
<path d="M275.412 309.567V486.197H200.829V309.567H275.412Z" fill="white"/>
</mask>
<g mask="url(#mask5_4819_26390)">
<path d="M268.66 480.91C269.579 481.556 271.068 481.556 271.987 480.91C272.906 480.263 272.906 479.214 271.987 478.568C271.069 477.921 269.579 477.921 268.66 478.568C267.742 479.214 267.742 480.263 268.66 480.91Z" fill="#42E8DF"/>
<path d="M270.587 479.739L270.588 444.626L270.456 444.532L202.896 396.99L202.897 359.405L266.824 314.421L266.561 313.864L202.37 359.036L202.369 397.36L202.501 397.454L270.061 444.996L270.06 479.739H270.587Z" fill="#42E8DF"/>
</g>
<mask id="mask6_4819_26390" style="mask-type:luminance" maskUnits="userSpaceOnUse" x="347" y="225" width="182" height="93">
<mask id="mask7_4819_26390" style="mask-type:alpha" maskUnits="userSpaceOnUse" x="347" y="225" width="182" height="93">
<path d="M374.868 225.393L528.025 276.125L501.115 317.534L347.958 260.791L374.868 225.393Z" fill="white"/>
</mask>
<g mask="url(#mask7_4819_26390)">
<path d="M-112 1.33594H602V546.336H-112V1.33594Z" fill="white"/>
</g>
</mask>
<g mask="url(#mask6_4819_26390)">
<path d="M499.21 300.598C500.128 301.245 501.618 301.245 502.537 300.598C503.455 299.952 503.455 298.904 502.537 298.257C501.618 297.611 500.129 297.611 499.21 298.257C498.291 298.904 498.291 299.952 499.21 300.598Z" fill="#42E8DF"/>
<path d="M373.772 257.305L393.499 270.996L458.57 270.663L498.982 298.881" stroke="#42E8E0"/>
</g>
<path d="M315.009 206.507L301.542 109.116L302.624 108.559L300.997 107.423L301 107.434C300.684 107.177 300.237 107.194 299.746 107.54L192.109 183.285C191.225 183.908 190.555 185.502 190.711 186.617L204.287 284.783C204.357 285.295 204.564 285.634 204.853 285.782L204.851 285.783L206.443 286.904L206.717 285.092L206.627 285.126L313.611 209.839C314.496 209.218 315.164 207.622 315.009 206.507Z" fill="#F4F5F8"/>
<path d="M315.301 211.021L207.663 286.766C206.832 287.35 206.121 287.012 205.975 285.964L192.4 187.798C192.244 186.683 192.913 185.087 193.797 184.466L301.434 108.721C302.266 108.136 302.977 108.473 303.123 109.522L316.698 207.688C316.853 208.804 316.185 210.398 315.301 211.021Z" fill="#F4F5F8"/>
<path d="M301.796 110.546L193.653 186.612L207.31 285.028L315.384 209.011L301.796 110.546Z" fill="#161616"/>
<path d="M382.961 257.496L377.088 261.235L318.186 219.785C317.201 219.092 315.479 219.179 314.341 219.98L212.753 291.468C211.781 290.806 207.348 288.208 207.348 288.208L209.498 292.467C209.498 292.467 209.505 292.461 209.507 292.459C209.595 292.763 209.787 293.047 210.108 293.272L272.143 336.927C273.128 337.62 274.85 337.533 275.987 336.733L379.945 263.576C380.413 263.248 380.698 262.85 380.817 262.446L380.826 262.453L382.961 257.496Z" fill="#E9EBF3"/>
<path d="M382.053 258.673L275.511 333.648C274.345 334.469 272.58 334.558 271.57 333.847L207.993 289.107C206.983 288.396 207.109 287.155 208.276 286.334L314.818 211.359C315.984 210.539 317.748 210.45 318.758 211.16L382.336 255.901C383.346 256.611 383.22 257.853 382.053 258.673Z" fill="#F4F5F8"/>
<path d="M382.053 258.091L275.51 333.067C274.344 333.887 272.58 333.977 271.57 333.266L207.993 288.525C207.637 288.275 207.43 287.958 207.352 287.617C207.24 288.169 207.439 288.718 207.993 289.108L271.57 333.848C272.58 334.558 274.344 334.469 275.51 333.649L382.053 258.674C382.809 258.141 383.12 257.434 382.977 256.808C382.883 257.263 382.58 257.72 382.053 258.091Z" fill="white"/>
<path d="M333.045 250.371L336.427 247.991C336.699 247.799 336.664 247.465 336.351 247.245L332.359 244.436C332.045 244.215 331.571 244.191 331.299 244.382L327.917 246.763C327.645 246.954 327.679 247.287 327.993 247.508L331.985 250.317C332.299 250.537 332.773 250.562 333.045 250.371Z" fill="#28283C"/>
<path d="M327.822 254.046L331.204 251.666C331.476 251.475 331.442 251.141 331.128 250.92L327.136 248.111C326.822 247.891 326.348 247.867 326.076 248.058L322.694 250.438C322.422 250.629 322.457 250.963 322.77 251.183L326.763 253.993C327.076 254.214 327.55 254.237 327.822 254.046Z" fill="#28283C"/>
<path d="M322.599 257.721L325.981 255.342C326.252 255.15 326.218 254.816 325.905 254.596L321.913 251.786C321.599 251.565 321.125 251.541 320.853 251.732L317.471 254.113C317.199 254.304 317.233 254.638 317.547 254.858L321.539 257.668C321.853 257.888 322.327 257.912 322.599 257.721Z" fill="#28283C"/>
<path d="M315.374 254.687L318.756 252.307C319.028 252.115 318.994 251.781 318.681 251.56L315.329 249.202C315.016 248.981 314.541 248.957 314.27 249.148L310.888 251.528C310.616 251.72 310.65 252.054 310.964 252.274L314.315 254.633C314.629 254.853 315.103 254.878 315.374 254.687Z" fill="#28283C"/>
<path d="M310.151 258.362L313.533 255.982C313.805 255.79 313.771 255.456 313.458 255.236L310.106 252.878C309.793 252.657 309.319 252.633 309.047 252.824L305.665 255.204C305.393 255.396 305.427 255.73 305.741 255.95L309.092 258.308C309.406 258.529 309.88 258.553 310.151 258.362Z" fill="#28283C"/>
<path d="M304.928 262.038L308.31 259.657C308.582 259.466 308.548 259.132 308.234 258.911L304.883 256.554C304.569 256.333 304.095 256.309 303.823 256.5L300.441 258.88C300.169 259.072 300.204 259.405 300.517 259.626L303.868 261.984C304.182 262.205 304.657 262.229 304.928 262.038Z" fill="#28283C"/>
<path d="M299.705 265.713L303.087 263.333C303.358 263.141 303.324 262.807 303.011 262.587L299.66 260.229C299.346 260.008 298.872 259.984 298.6 260.175L295.218 262.554C294.946 262.746 294.981 263.081 295.294 263.301L298.645 265.659C298.959 265.88 299.433 265.904 299.705 265.713Z" fill="#28283C"/>
<path d="M294.482 269.389L297.864 267.009C298.136 266.817 298.101 266.483 297.788 266.262L294.436 263.904C294.123 263.684 293.649 263.66 293.377 263.851L289.995 266.231C289.723 266.423 289.757 266.757 290.071 266.978L293.422 269.335C293.736 269.556 294.21 269.58 294.482 269.389Z" fill="#28283C"/>
<path d="M289.259 273.065L292.641 270.685C292.912 270.493 292.878 270.159 292.564 269.938L289.214 267.58C288.9 267.359 288.425 267.336 288.154 267.527L284.772 269.906C284.5 270.098 284.534 270.432 284.847 270.652L288.199 273.011C288.513 273.231 288.987 273.256 289.259 273.065Z" fill="#28283C"/>
<path d="M284.035 276.74L287.417 274.36C287.689 274.168 287.654 273.834 287.341 273.614L283.99 271.256C283.676 271.035 283.201 271.011 282.93 271.202L279.548 273.582C279.276 273.774 279.311 274.108 279.624 274.328L282.975 276.686C283.289 276.907 283.764 276.931 284.035 276.74Z" fill="#28283C"/>
<path d="M278.812 280.416L282.194 278.035C282.466 277.844 282.432 277.51 282.118 277.289L278.767 274.932C278.453 274.711 277.979 274.687 277.707 274.878L274.325 277.258C274.053 277.45 274.088 277.783 274.401 278.004L277.752 280.362C278.066 280.583 278.54 280.606 278.812 280.416Z" fill="#28283C"/>
<path d="M273.589 284.092L276.971 281.712C277.242 281.52 277.208 281.186 276.895 280.966L273.544 278.608C273.23 278.387 272.756 278.362 272.484 278.553L269.102 280.933C268.83 281.125 268.865 281.459 269.178 281.68L272.529 284.038C272.843 284.259 273.317 284.283 273.589 284.092Z" fill="#28283C"/>
<path d="M268.366 287.767L271.748 285.387C272.02 285.195 271.985 284.861 271.672 284.64L268.321 282.282C268.007 282.062 267.532 282.038 267.261 282.229L263.879 284.608C263.607 284.8 263.641 285.135 263.955 285.356L267.306 287.713C267.62 287.934 268.094 287.958 268.366 287.767Z" fill="#28283C"/>
<path d="M307.678 252.947L311.06 250.567C311.331 250.375 311.297 250.041 310.984 249.821L307.633 247.463C307.319 247.242 306.845 247.218 306.573 247.409L303.191 249.789C302.919 249.981 302.953 250.315 303.267 250.535L306.618 252.893C306.932 253.114 307.406 253.138 307.678 252.947Z" fill="#28283C"/>
<path d="M312.98 249.216L316.362 246.836C316.633 246.645 316.599 246.31 316.285 246.09L312.934 243.731C312.621 243.511 312.146 243.487 311.875 243.678L308.493 246.058C308.221 246.249 308.255 246.584 308.569 246.805L311.92 249.162C312.234 249.383 312.708 249.407 312.98 249.216Z" fill="#28283C"/>
<path d="M318.289 245.479L325.574 240.352C325.845 240.161 325.811 239.828 325.498 239.607L322.147 237.249C321.833 237.028 321.359 237.004 321.087 237.195L313.803 242.321C313.531 242.513 313.565 242.846 313.879 243.067L317.23 245.425C317.544 245.646 318.018 245.67 318.289 245.479Z" fill="#28283C"/>
<path d="M314.578 240.934L320.49 236.775C320.761 236.583 320.727 236.25 320.413 236.029L317.063 233.67C316.749 233.449 316.275 233.427 316.003 233.618L310.091 237.777C309.82 237.969 309.854 238.302 310.168 238.523L313.518 240.881C313.832 241.102 314.306 241.125 314.578 240.934Z" fill="#28283C"/>
<path d="M302.455 256.622L305.837 254.242C306.109 254.051 306.075 253.717 305.762 253.496L302.41 251.138C302.097 250.917 301.622 250.893 301.351 251.084L297.969 253.463C297.697 253.655 297.731 253.99 298.045 254.21L301.396 256.568C301.71 256.79 302.184 256.813 302.455 256.622Z" fill="#28283C"/>
<path d="M297.232 260.298L300.614 257.918C300.885 257.726 300.852 257.392 300.538 257.171L297.187 254.814C296.873 254.593 296.399 254.569 296.127 254.76L292.745 257.139C292.473 257.331 292.508 257.666 292.821 257.886L296.172 260.244C296.486 260.465 296.96 260.489 297.232 260.298Z" fill="#28283C"/>
<path d="M292.009 263.973L295.391 261.593C295.662 261.401 295.628 261.067 295.315 260.846L291.964 258.488C291.65 258.268 291.176 258.244 290.904 258.435L287.522 260.814C287.25 261.006 287.284 261.34 287.598 261.56L290.949 263.919C291.263 264.139 291.737 264.164 292.009 263.973Z" fill="#28283C"/>
<path d="M286.786 267.648L290.168 265.268C290.44 265.076 290.405 264.743 290.092 264.522L286.741 262.164C286.427 261.943 285.952 261.919 285.681 262.11L282.299 264.491C282.027 264.682 282.061 265.016 282.375 265.237L285.726 267.594C286.04 267.816 286.514 267.839 286.786 267.648Z" fill="#28283C"/>
<path d="M281.562 271.325L284.945 268.945C285.216 268.753 285.182 268.42 284.868 268.199L281.518 265.841C281.204 265.62 280.729 265.596 280.458 265.787L277.076 268.167C276.804 268.359 276.838 268.693 277.151 268.913L280.503 271.271C280.817 271.492 281.291 271.516 281.562 271.325Z" fill="#28283C"/>
<path d="M276.339 275L279.721 272.62C279.993 272.428 279.958 272.094 279.645 271.874L276.294 269.516C275.98 269.295 275.506 269.271 275.234 269.462L271.852 271.841C271.58 272.033 271.615 272.368 271.928 272.588L275.279 274.946C275.593 275.167 276.068 275.191 276.339 275Z" fill="#28283C"/>
<path d="M271.115 278.676L274.498 276.295C274.769 276.104 274.735 275.77 274.422 275.549L271.071 273.192C270.757 272.971 270.283 272.947 270.011 273.138L266.629 275.517C266.357 275.709 266.391 276.043 266.705 276.264L270.056 278.622C270.37 278.843 270.844 278.867 271.115 278.676Z" fill="#28283C"/>
<path d="M265.892 282.352L269.275 279.972C269.547 279.78 269.512 279.446 269.199 279.225L265.847 276.867C265.534 276.647 265.059 276.622 264.788 276.814L261.406 279.193C261.133 279.385 261.168 279.719 261.481 279.939L264.833 282.298C265.147 282.518 265.621 282.543 265.892 282.352Z" fill="#28283C"/>
<path d="M260.67 286.027L264.052 283.647C264.324 283.455 264.289 283.121 263.976 282.901L260.625 280.543C260.311 280.322 259.836 280.298 259.565 280.489L256.183 282.869C255.911 283.061 255.945 283.395 256.259 283.616L259.61 285.973C259.924 286.194 260.398 286.218 260.67 286.027Z" fill="#28283C"/>
<path d="M251.383 292.561L258.763 287.368C259.035 287.176 259 286.842 258.687 286.621L255.336 284.263C255.023 284.043 254.548 284.019 254.276 284.21L246.896 289.403C246.625 289.595 246.659 289.928 246.973 290.149L250.324 292.507C250.638 292.728 251.112 292.752 251.383 292.561Z" fill="#28283C"/>
<path d="M241.214 285.405L247.443 281.022C247.715 280.83 247.681 280.496 247.367 280.276L244.016 277.918C243.702 277.697 243.228 277.673 242.957 277.864L236.727 282.248C236.456 282.439 236.491 282.773 236.804 282.994L240.155 285.351C240.468 285.572 240.943 285.596 241.214 285.405Z" fill="#28283C"/>
<path d="M293.308 255.903L296.69 253.523C296.962 253.332 296.927 252.997 296.614 252.776L293.263 250.419C292.95 250.198 292.475 250.174 292.203 250.365L288.821 252.745C288.55 252.937 288.584 253.271 288.897 253.492L292.248 255.85C292.562 256.07 293.036 256.094 293.308 255.903Z" fill="#28283C"/>
<path d="M298.661 252.136L302.044 249.756C302.315 249.564 302.281 249.23 301.968 249.01L298.616 246.651C298.303 246.431 297.828 246.406 297.557 246.597L294.175 248.977C293.903 249.169 293.937 249.503 294.251 249.724L297.602 252.082C297.916 252.303 298.39 252.327 298.661 252.136Z" fill="#28283C"/>
<path d="M304.014 248.369L307.397 245.989C307.668 245.797 307.634 245.464 307.321 245.243L303.97 242.885C303.656 242.664 303.181 242.64 302.91 242.831L299.528 245.211C299.256 245.403 299.29 245.736 299.604 245.957L302.955 248.315C303.269 248.536 303.743 248.559 304.014 248.369Z" fill="#28283C"/>
<path d="M309.367 244.602L312.75 242.222C313.021 242.03 312.987 241.696 312.674 241.475L309.323 239.117C309.009 238.897 308.535 238.872 308.263 239.064L304.881 241.443C304.609 241.635 304.643 241.969 304.957 242.189L308.308 244.548C308.622 244.768 309.096 244.793 309.367 244.602Z" fill="#28283C"/>
<path d="M288.085 259.578L291.468 257.199C291.739 257.007 291.704 256.672 291.391 256.452L288.04 254.093C287.727 253.873 287.251 253.849 286.98 254.04L283.598 256.42C283.326 256.611 283.361 256.945 283.674 257.166L287.025 259.524C287.339 259.745 287.814 259.769 288.085 259.578Z" fill="#28283C"/>
<path d="M282.862 263.254L286.244 260.875C286.516 260.683 286.482 260.349 286.168 260.129L282.817 257.77C282.503 257.55 282.029 257.526 281.757 257.717L278.375 260.097C278.103 260.288 278.138 260.622 278.451 260.843L281.802 263.201C282.116 263.422 282.591 263.445 282.862 263.254Z" fill="#28283C"/>
<path d="M277.639 266.93L281.021 264.55C281.292 264.359 281.259 264.025 280.945 263.804L277.594 261.446C277.28 261.226 276.806 261.202 276.534 261.393L273.152 263.772C272.88 263.964 272.915 264.298 273.228 264.518L276.579 266.877C276.893 267.097 277.367 267.121 277.639 266.93Z" fill="#28283C"/>
<path d="M272.415 270.605L275.797 268.226C276.069 268.034 276.035 267.7 275.721 267.48L272.37 265.121C272.057 264.901 271.582 264.876 271.311 265.067L267.929 267.447C267.657 267.639 267.691 267.973 268.004 268.194L271.356 270.552C271.67 270.772 272.144 270.796 272.415 270.605Z" fill="#28283C"/>
<path d="M267.192 274.281L270.575 271.901C270.846 271.709 270.811 271.376 270.498 271.155L267.147 268.797C266.834 268.576 266.359 268.552 266.087 268.744L262.705 271.123C262.434 271.315 262.468 271.648 262.782 271.869L266.132 274.227C266.446 274.448 266.92 274.472 267.192 274.281Z" fill="#28283C"/>
<path d="M261.969 277.956L265.352 275.576C265.623 275.385 265.589 275.05 265.275 274.83L261.924 272.471C261.611 272.251 261.136 272.227 260.864 272.418L257.482 274.798C257.21 274.989 257.245 275.323 257.558 275.544L260.909 277.902C261.223 278.122 261.698 278.147 261.969 277.956Z" fill="#28283C"/>
<path d="M256.746 281.631L260.128 279.252C260.399 279.06 260.365 278.726 260.052 278.506L256.701 276.147C256.387 275.927 255.913 275.903 255.641 276.094L252.259 278.473C251.987 278.665 252.022 278.999 252.335 279.22L255.686 281.578C256 281.798 256.474 281.822 256.746 281.631Z" fill="#28283C"/>
<path d="M251.523 285.307L254.905 282.928C255.176 282.736 255.142 282.402 254.828 282.181L251.477 279.823C251.164 279.602 250.689 279.579 250.418 279.77L247.036 282.149C246.764 282.341 246.798 282.675 247.111 282.896L250.463 285.254C250.777 285.474 251.251 285.498 251.523 285.307Z" fill="#28283C"/>
<path d="M246.299 288.983L249.681 286.604C249.953 286.412 249.918 286.078 249.605 285.857L246.254 283.499C245.941 283.279 245.466 283.254 245.194 283.445L241.812 285.825C241.541 286.016 241.575 286.351 241.888 286.571L245.239 288.93C245.553 289.15 246.027 289.174 246.299 288.983Z" fill="#28283C"/>
<path d="M296.058 246.811L299.441 244.432C299.712 244.24 299.678 243.906 299.365 243.686L296.013 241.327C295.7 241.107 295.225 241.082 294.954 241.273L291.572 243.653C291.3 243.845 291.334 244.179 291.648 244.4L294.999 246.758C295.313 246.978 295.787 247.002 296.058 246.811Z" fill="#28283C"/>
<path d="M301.256 243.153L304.638 240.773C304.91 240.581 304.875 240.248 304.562 240.027L301.21 237.669C300.897 237.448 300.422 237.424 300.151 237.615L296.769 239.996C296.497 240.187 296.531 240.521 296.845 240.742L300.196 243.099C300.51 243.32 300.984 243.344 301.256 243.153Z" fill="#28283C"/>
<path d="M306.453 239.497L309.835 237.117C310.107 236.925 310.073 236.591 309.76 236.371L306.408 234.012C306.095 233.792 305.621 233.768 305.349 233.959L301.967 236.339C301.695 236.53 301.729 236.864 302.042 237.085L305.394 239.443C305.708 239.663 306.182 239.688 306.453 239.497Z" fill="#28283C"/>
<path d="M311.65 235.839L315.032 233.46C315.304 233.268 315.27 232.934 314.957 232.714L311.605 230.355C311.292 230.135 310.817 230.111 310.546 230.302L307.163 232.681C306.892 232.873 306.926 233.207 307.24 233.428L310.59 235.786C310.904 236.006 311.378 236.03 311.65 235.839Z" fill="#28283C"/>
<path d="M306.306 232.078L309.688 229.699C309.96 229.507 309.926 229.173 309.612 228.952L308.504 228.173C308.19 227.952 307.716 227.928 307.445 228.119L304.063 230.5C303.791 230.691 303.825 231.024 304.139 231.245L305.246 232.025C305.56 232.245 306.034 232.269 306.306 232.078Z" fill="#28283C"/>
<path d="M299.524 236.851L302.906 234.471C303.178 234.28 303.143 233.945 302.83 233.725L301.722 232.945C301.408 232.724 300.934 232.701 300.662 232.892L297.28 235.272C297.009 235.463 297.043 235.797 297.356 236.018L298.464 236.797C298.778 237.018 299.252 237.042 299.524 236.851Z" fill="#28283C"/>
<path d="M294.348 240.493L297.73 238.113C298.002 237.921 297.968 237.587 297.654 237.367L296.547 236.588C296.233 236.367 295.758 236.343 295.487 236.534L292.105 238.915C291.833 239.106 291.868 239.44 292.181 239.66L293.288 240.439C293.602 240.66 294.076 240.684 294.348 240.493Z" fill="#28283C"/>
<path d="M289.172 244.136L292.555 241.756C292.826 241.564 292.791 241.23 292.478 241.01L291.371 240.23C291.057 240.009 290.583 239.986 290.311 240.177L286.929 242.557C286.657 242.748 286.691 243.082 287.005 243.303L288.112 244.082C288.426 244.303 288.901 244.327 289.172 244.136Z" fill="#28283C"/>
<path d="M283.997 247.778L287.379 245.398C287.65 245.206 287.617 244.872 287.304 244.652L286.195 243.872C285.882 243.651 285.407 243.627 285.136 243.818L281.753 246.199C281.482 246.39 281.516 246.724 281.829 246.945L282.937 247.724C283.251 247.945 283.725 247.969 283.997 247.778Z" fill="#28283C"/>
<path d="M255.102 268.111L258.484 265.731C258.756 265.539 258.722 265.205 258.408 264.985L257.301 264.205C256.987 263.984 256.512 263.96 256.241 264.151L252.858 266.532C252.587 266.723 252.621 267.057 252.935 267.277L254.043 268.057C254.357 268.278 254.831 268.302 255.102 268.111Z" fill="#28283C"/>
<path d="M249.927 271.753L253.309 269.374C253.581 269.182 253.546 268.848 253.233 268.628L252.125 267.847C251.811 267.627 251.337 267.603 251.065 267.794L247.683 270.174C247.412 270.365 247.446 270.699 247.76 270.92L248.867 271.7C249.181 271.92 249.655 271.944 249.927 271.753Z" fill="#28283C"/>
<path d="M244.751 275.395L248.133 273.015C248.405 272.823 248.371 272.49 248.057 272.269L246.95 271.489C246.636 271.269 246.162 271.245 245.89 271.436L242.508 273.816C242.236 274.007 242.271 274.341 242.584 274.561L243.691 275.341C244.005 275.562 244.48 275.586 244.751 275.395Z" fill="#28283C"/>
<path d="M239.575 279.036L242.958 276.657C243.229 276.465 243.196 276.131 242.882 275.91L241.774 275.131C241.46 274.91 240.986 274.886 240.714 275.077L237.332 277.458C237.061 277.649 237.095 277.983 237.408 278.203L238.515 278.983C238.829 279.203 239.304 279.227 239.575 279.036Z" fill="#28283C"/>
<path d="M290.836 250.487L294.218 248.108C294.49 247.916 294.455 247.581 294.142 247.361L290.791 245.003C290.477 244.782 290.002 244.758 289.731 244.949L286.349 247.329C286.077 247.521 286.111 247.855 286.425 248.075L289.776 250.433C290.09 250.654 290.564 250.678 290.836 250.487Z" fill="#28283C"/>
<path d="M285.612 254.162L288.995 251.781C289.266 251.59 289.231 251.256 288.918 251.035L285.567 248.678C285.254 248.457 284.779 248.433 284.507 248.624L281.125 251.004C280.853 251.196 280.887 251.53 281.201 251.75L284.552 254.108C284.866 254.329 285.34 254.353 285.612 254.162Z" fill="#28283C"/>
<path d="M280.389 257.838L283.771 255.459C284.043 255.267 284.009 254.933 283.695 254.713L280.344 252.354C280.031 252.134 279.556 252.11 279.284 252.301L275.902 254.681C275.63 254.872 275.665 255.206 275.978 255.427L279.329 257.785C279.643 258.005 280.118 258.029 280.389 257.838Z" fill="#28283C"/>
<path d="M275.165 261.513L278.548 259.134C278.819 258.942 278.785 258.608 278.472 258.388L275.121 256.029C274.807 255.809 274.333 255.784 274.061 255.975L270.679 258.355C270.407 258.547 270.441 258.881 270.755 259.102L274.106 261.46C274.42 261.681 274.894 261.705 275.165 261.513Z" fill="#28283C"/>
<path d="M269.943 265.189L273.325 262.81C273.597 262.618 273.562 262.284 273.249 262.064L269.897 259.705C269.584 259.485 269.109 259.46 268.838 259.651L265.456 262.031C265.184 262.222 265.218 262.557 265.532 262.778L268.883 265.136C269.197 265.356 269.671 265.38 269.943 265.189Z" fill="#28283C"/>
<path d="M264.719 268.864L268.101 266.485C268.373 266.293 268.338 265.958 268.025 265.738L264.674 263.38C264.361 263.159 263.886 263.135 263.614 263.326L260.232 265.706C259.961 265.898 259.994 266.232 260.308 266.452L263.659 268.81C263.973 269.031 264.447 269.055 264.719 268.864Z" fill="#28283C"/>
<path d="M259.496 272.54L262.879 270.161C263.15 269.969 263.115 269.636 262.802 269.415L259.451 267.057C259.138 266.836 258.663 266.812 258.391 267.003L255.009 269.383C254.737 269.575 254.772 269.908 255.085 270.129L258.436 272.487C258.75 272.708 259.225 272.732 259.496 272.54Z" fill="#28283C"/>
<path d="M254.273 276.216L257.655 273.837C257.927 273.645 257.893 273.311 257.579 273.09L254.228 270.732C253.914 270.512 253.44 270.488 253.168 270.679L249.786 273.058C249.514 273.25 249.549 273.584 249.862 273.804L253.213 276.163C253.527 276.383 254.001 276.407 254.273 276.216Z" fill="#28283C"/>
<path d="M249.05 279.891L252.432 277.512C252.704 277.32 252.669 276.986 252.356 276.766L249.005 274.407C248.691 274.187 248.216 274.162 247.945 274.353L244.563 276.733C244.29 276.925 244.325 277.259 244.638 277.48L247.99 279.838C248.304 280.059 248.778 280.082 249.05 279.891Z" fill="#28283C"/>
<path d="M320.697 250.94L330.658 243.931C330.93 243.74 330.896 243.405 330.582 243.185L327.231 240.826C326.918 240.606 326.443 240.581 326.171 240.772L316.21 247.782C315.939 247.973 315.972 248.307 316.286 248.528L319.637 250.886C319.951 251.106 320.425 251.131 320.697 250.94Z" fill="#28283C"/>
<path d="M256.529 296.096L266.49 289.086C266.761 288.895 266.727 288.561 266.414 288.341L263.063 285.983C262.749 285.762 262.275 285.737 262.003 285.928L252.042 292.938C251.77 293.13 251.805 293.464 252.118 293.684L255.469 296.042C255.783 296.263 256.258 296.287 256.529 296.096Z" fill="#28283C"/>
<path d="M277.417 289.516L280.799 287.136C281.071 286.944 281.036 286.61 280.723 286.39L276.731 283.581C276.418 283.36 275.943 283.336 275.671 283.527L272.289 285.908C272.017 286.099 272.052 286.433 272.365 286.653L276.357 289.462C276.671 289.683 277.145 289.707 277.417 289.516Z" fill="#28283C"/>
<path d="M315.348 262.823L320.757 259.017C321.029 258.826 320.995 258.492 320.681 258.272L316.689 255.462C316.375 255.241 315.901 255.217 315.629 255.408L310.22 259.215C309.948 259.406 309.982 259.74 310.296 259.961L314.289 262.77C314.603 262.99 315.076 263.014 315.348 262.823Z" fill="#28283C"/>
<path d="M282.45 285.975L287.859 282.169C288.13 281.978 288.097 281.644 287.783 281.423L283.791 278.614C283.477 278.393 283.003 278.369 282.731 278.56L277.322 282.367C277.051 282.558 277.085 282.891 277.398 283.112L281.39 285.921C281.704 286.142 282.178 286.165 282.45 285.975Z" fill="#28283C"/>
<path d="M307.812 268.127L313.221 264.32C313.492 264.129 313.459 263.795 313.145 263.575L309.153 260.765C308.839 260.544 308.365 260.52 308.094 260.711L302.684 264.518C302.412 264.709 302.447 265.043 302.76 265.263L306.753 268.073C307.066 268.293 307.54 268.318 307.812 268.127Z" fill="#28283C"/>
<path d="M308.057 260.738L284.54 277.287C284.248 277.493 284.248 277.826 284.54 278.031L288.61 280.896C288.902 281.101 289.376 281.101 289.667 280.896L313.185 264.346L308.057 260.738Z" fill="#28283C"/>
<path d="M262.819 296.18L259.052 298.831C258.83 298.988 258.858 299.261 259.114 299.442L260.747 300.591C261.004 300.772 261.393 300.792 261.616 300.635L265.383 297.984C265.606 297.828 265.578 297.554 265.321 297.373L263.688 296.223C263.431 296.043 263.042 296.024 262.819 296.18Z" fill="#28283C"/>
<path d="M268.086 292.474L264.318 295.126C264.096 295.282 264.124 295.555 264.381 295.736L266.014 296.885C266.271 297.066 266.66 297.086 266.883 296.93L270.65 294.278C270.872 294.121 270.844 293.848 270.587 293.667L268.954 292.517C268.697 292.337 268.308 292.317 268.086 292.474Z" fill="#28283C"/>
<path d="M273.31 288.798L269.542 291.449C269.319 291.606 269.347 291.88 269.604 292.061L271.238 293.209C271.494 293.39 271.883 293.41 272.106 293.253L275.874 290.603C276.096 290.446 276.068 290.172 275.811 289.991L274.178 288.842C273.921 288.661 273.532 288.642 273.31 288.798Z" fill="#28283C"/>
<path d="M265.202 290.444L261.434 293.095C261.212 293.252 261.24 293.526 261.497 293.707L263.13 294.855C263.387 295.037 263.776 295.057 263.998 294.901L267.766 292.249C267.988 292.093 267.96 291.819 267.703 291.638L266.07 290.488C265.813 290.308 265.424 290.288 265.202 290.444Z" fill="#28283C"/>
<path d="M211.914 191.391C212.171 191.391 212.442 191.298 212.703 191.116C213.502 190.553 213.997 189.28 213.807 188.275C213.715 187.792 213.48 187.428 213.145 187.25C212.775 187.053 212.319 187.11 211.891 187.411C211.092 187.974 210.597 189.248 210.788 190.252C210.879 190.735 211.114 191.099 211.449 191.277C211.594 191.353 211.751 191.391 211.914 191.391ZM212.678 187.576C212.793 187.576 212.902 187.602 213 187.655C213.227 187.775 213.389 188.031 213.454 188.375C213.611 189.203 213.193 190.261 212.521 190.733C212.197 190.962 211.859 191.012 211.594 190.872C211.366 190.752 211.205 190.496 211.139 190.151C210.983 189.324 211.402 188.266 212.073 187.793C212.276 187.65 212.485 187.576 212.678 187.576Z" fill="#42E8DF"/>
<path d="M207.607 194.422C207.865 194.422 208.136 194.329 208.396 194.147C209.195 193.584 209.69 192.311 209.5 191.306C209.409 190.823 209.173 190.459 208.839 190.281C208.468 190.084 208.011 190.142 207.584 190.442C206.785 191.005 206.29 192.279 206.481 193.283C206.572 193.766 206.807 194.13 207.143 194.308C207.287 194.384 207.445 194.422 207.607 194.422ZM208.371 190.607C208.486 190.607 208.595 190.633 208.693 190.687C208.92 190.806 209.082 191.062 209.147 191.406C209.304 192.234 208.886 193.292 208.215 193.764C207.891 193.993 207.552 194.043 207.287 193.904C207.059 193.783 206.898 193.528 206.833 193.182C206.676 192.356 207.095 191.297 207.766 190.824C207.97 190.681 208.178 190.607 208.371 190.607Z" fill="#42E8DF"/>
<path d="M202.35 196.263C202.524 197.18 203.263 197.504 203.999 196.986C204.735 196.468 205.191 195.304 205.017 194.386C204.843 193.469 204.105 193.146 203.368 193.664C202.632 194.182 202.176 195.346 202.35 196.263Z" fill="#42E8DF"/>
<path d="M284.927 138.342L287.23 136.721L287.051 135.423L284.748 137.044L284.927 138.342Z" fill="#42E8DF"/>
<path d="M281.578 140.698L283.882 139.078L283.703 137.779L281.4 139.4L281.578 140.698Z" fill="#42E8DF"/>
<path d="M288.24 136.01L293.293 132.456L293.114 131.157L288.062 134.712L288.24 136.01Z" fill="#42E8DF"/>
<path d="M238.311 180.779C238.686 180.779 239.072 180.647 239.442 180.387L259.626 166.185C260.871 165.308 261.568 163.193 261.178 161.469C260.981 160.601 260.546 159.959 259.952 159.661C259.373 159.372 258.717 159.45 258.104 159.882L237.92 174.085C236.674 174.962 235.978 177.077 236.368 178.799C236.565 179.669 237.001 180.311 237.594 180.608C237.824 180.722 238.065 180.779 238.311 180.779ZM259.235 159.932C259.434 159.932 259.63 159.977 259.815 160.07C260.302 160.313 260.662 160.852 260.828 161.587C261.177 163.129 260.556 165.019 259.444 165.802L239.26 180.005C238.747 180.367 238.205 180.438 237.732 180.199C237.243 179.955 236.884 179.416 236.717 178.682C236.368 177.141 236.989 175.25 238.102 174.467L258.286 160.265C258.599 160.044 258.923 159.932 259.235 159.932Z" fill="#42E8DF"/>
<path d="M288.882 161.864L292.82 159.095L292.667 157.985L288.73 160.756L288.882 161.864Z" fill="#42E8DF"/>
<path d="M285.523 164.229L287.491 162.845L287.338 161.735L285.37 163.121L285.523 164.229Z" fill="#42E8DF"/>
<path d="M288.079 165.283L289.756 164.103L289.603 162.993L287.926 164.173L288.079 165.283Z" fill="#42E8DF"/>
<path d="M285.268 167.26L287.237 165.875L287.084 164.766L285.117 166.151L285.268 167.26Z" fill="#42E8DF"/>
<path d="M282.378 172.147L290.114 166.703L289.961 165.594L282.225 171.038L282.378 172.147Z" fill="#42E8DF"/>
<path d="M276.493 176.287L278.462 174.902L278.309 173.793L276.341 175.178L276.493 176.287Z" fill="#42E8DF"/>
<path d="M279.469 174.193L281.438 172.809L281.285 171.699L279.317 173.084L279.469 174.193Z" fill="#42E8DF"/>
<path d="M271.875 179.537L275.6 176.916L275.448 175.808L271.723 178.428L271.875 179.537Z" fill="#42E8DF"/>
<path d="M269.139 181.463L270.916 180.213L270.763 179.104L268.987 180.353L269.139 181.463Z" fill="#42E8DF"/>
<path d="M263.873 185.169L268.189 182.132L268.037 181.022L263.72 184.06L263.873 185.169Z" fill="#42E8DF"/>
<path d="M258.606 188.875L262.923 185.838L262.77 184.729L258.454 187.766L258.606 188.875Z" fill="#42E8DF"/>
<path d="M288.794 170.485L290.472 169.304L290.318 168.195L288.642 169.375L288.794 170.485Z" fill="#42E8DF"/>
<path d="M285.984 172.462L287.953 171.076L287.8 169.968L285.832 171.352L285.984 172.462Z" fill="#42E8DF"/>
<path d="M286.577 174.898L290.829 171.905L290.676 170.796L286.424 173.789L286.577 174.898Z" fill="#42E8DF"/>
<path d="M283.729 176.901L285.698 175.517L285.545 174.407L283.578 175.792L283.729 176.901Z" fill="#42E8DF"/>
<path d="M280.868 178.914L282.837 177.529L282.684 176.42L280.716 177.805L280.868 178.914Z" fill="#42E8DF"/>
<path d="M276.25 182.164L279.975 179.543L279.823 178.435L276.098 181.055L276.25 182.164Z" fill="#42E8DF"/>
<path d="M274.049 183.713L275.375 182.78L275.223 181.671L273.897 182.604L274.049 183.713Z" fill="#42E8DF"/>
<path d="M269.832 186.681L273.094 184.386L272.941 183.276L269.68 185.572L269.832 186.681Z" fill="#42E8DF"/>
<path d="M268.946 187.304L272.208 185.009L272.055 183.899L268.794 186.195L268.946 187.304Z" fill="#42E8DF"/>
<path d="M276.046 185.16L278.014 183.775L277.861 182.666L275.893 184.051L276.046 185.16Z" fill="#42E8DF"/>
<path d="M273.185 187.175L275.153 185.79L275 184.681L273.032 186.066L273.185 187.175Z" fill="#42E8DF"/>
<path d="M268.566 190.424L272.292 187.804L272.139 186.694L268.414 189.316L268.566 190.424Z" fill="#42E8DF"/>
<path d="M289.411 175.755L291.187 174.506L291.034 173.396L289.258 174.646L289.411 175.755Z" fill="#42E8DF"/>
<path d="M284.145 179.462L288.461 176.425L288.309 175.315L283.992 178.353L284.145 179.462Z" fill="#42E8DF"/>
<path d="M278.877 183.168L283.194 180.131L283.042 179.021L278.725 182.059L278.877 183.168Z" fill="#42E8DF"/>
<path d="M279.198 185.795L281.167 184.41L281.014 183.301L279.046 184.686L279.198 185.795Z" fill="#42E8DF"/>
<path d="M274.58 189.044L278.305 186.424L278.153 185.314L274.428 187.935L274.58 189.044Z" fill="#42E8DF"/>
<path d="M289.577 178.492L291.545 177.107L291.392 175.998L289.424 177.383L289.577 178.492Z" fill="#42E8DF"/>
<path d="M286.715 180.506L288.683 179.121L288.53 178.012L286.563 179.397L286.715 180.506Z" fill="#42E8DF"/>
<path d="M282.097 183.755L285.822 181.135L285.669 180.025L281.945 182.646L282.097 183.755Z" fill="#42E8DF"/>
<path d="M287.547 182.771L291.864 179.734L291.712 178.625L287.395 181.663L287.547 182.771Z" fill="#42E8DF"/>
<path d="M285.272 184.373L286.598 183.44L286.445 182.331L285.119 183.264L285.272 184.373Z" fill="#42E8DF"/>
<path d="M282.991 185.978L284.317 185.045L284.165 183.936L282.839 184.869L282.991 185.978Z" fill="#42E8DF"/>
<path d="M278.775 188.944L282.036 186.649L281.884 185.54L278.623 187.836L278.775 188.944Z" fill="#42E8DF"/>
<path d="M290.292 183.693L292.26 182.309L292.108 181.199L290.14 182.584L290.292 183.693Z" fill="#42E8DF"/>
<path d="M285.674 186.942L289.399 184.322L289.247 183.213L285.522 185.834L285.674 186.942Z" fill="#42E8DF"/>
<path d="M294.675 183.461L296.001 182.528L295.849 181.419L294.523 182.352L294.675 183.461Z" fill="#42E8DF"/>
<path d="M290.459 186.428L293.721 184.133L293.569 183.023L290.307 185.319L290.459 186.428Z" fill="#42E8DF"/>
<path d="M286.152 189.46L289.413 187.164L289.261 186.056L285.999 188.351L286.152 189.46Z" fill="#42E8DF"/>
<path d="M289.083 193.921L296.819 188.477L296.667 187.367L288.931 192.811L289.083 193.921Z" fill="#42E8DF"/>
<path d="M286.109 196.013L288.077 194.629L287.925 193.52L285.957 194.905L286.109 196.013Z" fill="#42E8DF"/>
<path d="M283.028 198.181L284.997 196.797L284.844 195.688L282.877 197.073L283.028 198.181Z" fill="#42E8DF"/>
<path d="M278.411 201.431L282.136 198.81L281.984 197.7L278.259 200.322L278.411 201.431Z" fill="#42E8DF"/>
<path d="M280.885 202.542L282.854 201.157L282.701 200.048L280.732 201.433L280.885 202.542Z" fill="#42E8DF"/>
<path d="M276.267 205.791L279.992 203.17L279.84 202.061L276.115 204.682L276.267 205.791Z" fill="#42E8DF"/>
<path d="M292.37 194.459L293.695 193.526L293.543 192.417L292.217 193.35L292.37 194.459Z" fill="#42E8DF"/>
<path d="M288.153 197.426L291.415 195.131L291.262 194.021L288.001 196.317L288.153 197.426Z" fill="#42E8DF"/>
<path d="M283.845 200.459L287.107 198.163L286.955 197.054L283.693 199.349L283.845 200.459Z" fill="#42E8DF"/>
<path d="M286.311 201.575L290.564 198.584L290.411 197.475L286.159 200.467L286.311 201.575Z" fill="#42E8DF"/>
<path d="M283.464 203.579L285.433 202.194L285.28 201.085L283.312 202.47L283.464 203.579Z" fill="#42E8DF"/>
<path d="M280.602 205.593L282.571 204.207L282.418 203.099L280.451 204.483L280.602 205.593Z" fill="#42E8DF"/>
<path d="M275.985 208.842L279.71 206.22L279.558 205.112L275.833 207.734L275.985 208.842Z" fill="#42E8DF"/>
<path d="M273.031 210.922L275 209.537L274.847 208.428L272.879 209.813L273.031 210.922Z" fill="#42E8DF"/>
<path d="M268.413 214.171L272.137 211.55L271.985 210.44L268.261 213.062L268.413 214.171Z" fill="#42E8DF"/>
<path d="M282.579 209.908L284.548 208.523L284.395 207.414L282.427 208.799L282.579 209.908Z" fill="#42E8DF"/>
<path d="M277.961 213.157L281.686 210.536L281.533 209.428L277.808 212.049L277.961 213.157Z" fill="#42E8DF"/>
<path d="M292.861 202.673L294.829 201.287L294.676 200.179L292.708 201.563L292.861 202.673Z" fill="#42E8DF"/>
<path d="M289.999 204.686L291.968 203.302L291.815 202.192L289.847 203.578L289.999 204.686Z" fill="#42E8DF"/>
<path d="M285.381 207.936L289.106 205.314L288.953 204.205L285.229 206.827L285.381 207.936Z" fill="#42E8DF"/>
<path d="M289.145 202.434L290.921 201.185L290.769 200.075L288.993 201.325L289.145 202.434Z" fill="#42E8DF"/>
<path d="M283.879 206.139L288.196 203.102L288.043 201.993L283.727 205.031L283.879 206.139Z" fill="#42E8DF"/>
<path d="M278.613 209.845L282.929 206.809L282.777 205.699L278.46 208.737L278.613 209.845Z" fill="#42E8DF"/>
<path d="M267.246 217.844L269.214 216.46L269.061 215.351L267.094 216.735L267.246 217.844Z" fill="#42E8DF"/>
<path d="M262.628 221.095L266.353 218.474L266.2 217.365L262.475 219.987L262.628 221.095Z" fill="#42E8DF"/>
<path d="M274.514 212.73L277.776 210.435L277.623 209.325L274.361 211.621L274.514 212.73Z" fill="#42E8DF"/>
<path d="M270.207 215.762L273.468 213.466L273.316 212.357L270.054 214.653L270.207 215.762Z" fill="#42E8DF"/>
<g opacity="0.152066">
<path d="M291.869 206.201L293.212 205.257L293.058 204.133L291.715 205.078L291.869 206.201Z" fill="#42E8DF"/>
<path d="M289.561 207.826L290.903 206.882L290.749 205.758L289.406 206.703L289.561 207.826Z" fill="#42E8DF"/>
<path d="M285.291 210.83L288.594 208.506L288.439 207.383L285.137 209.707L285.291 210.83Z" fill="#42E8DF"/>
<path d="M284.394 211.461L287.697 209.137L287.542 208.014L284.24 210.338L284.394 211.461Z" fill="#42E8DF"/>
</g>
</g>
</svg>
