<svg width="250" height="217" viewBox="0 0 250 217" fill="none" xmlns="http://www.w3.org/2000/svg">
<path d="M169.459 152.872V59.2577C169.459 37.827 152.086 20.4531 130.655 20.4531C109.224 20.4531 91.8502 37.827 91.8502 59.2577V125.639" stroke="#DCE0E4" stroke-width="11.9999" stroke-miterlimit="10" stroke-linecap="round"/>
<path d="M53.1567 0.946289H89.0094C96.2423 0.946289 102.105 6.81023 102.105 14.0432V49.8948C102.105 57.1277 96.2423 62.9917 89.0094 62.9917H53.1567C45.9238 62.9917 40.0598 57.1277 40.0598 49.8948V14.0432C40.0598 6.81023 45.9238 0.946289 53.1567 0.946289Z" fill="#002189"/>
<path d="M49.9607 31.9685C49.9607 20.3026 59.4176 10.8457 71.0835 10.8457C82.7494 10.8457 92.2063 20.3026 92.2063 31.9685C92.2063 43.6344 82.7494 53.0913 71.0835 53.0913C59.4176 53.0913 49.9607 43.6344 49.9607 31.9685Z" fill="white"/>
<path d="M79.3774 24.2949L62.6865 39.1508L57.5796 32.9498" stroke="#006EF2" stroke-width="3.19997" stroke-linecap="round" stroke-linejoin="round"/>
<path d="M130.654 195.386C96.4453 195.386 68.7126 167.653 68.7126 133.444C68.7126 99.2347 96.4453 71.5029 130.654 71.5029C164.864 71.5029 192.595 99.2347 192.595 133.444C192.595 167.653 164.864 195.386 130.654 195.386Z" fill="#006EF2"/>
<path d="M135.934 135.274L136.274 136.733L141.164 157.854H144.137L138.906 135.274C142.633 132.67 145.072 128.344 145.072 123.45C145.072 115.488 138.617 109.032 130.655 109.032C130.154 109.032 129.657 109.057 129.169 109.106C136.435 109.856 142.099 115.993 142.099 123.45C142.099 127.16 140.699 130.539 138.401 133.093C137.664 133.913 136.837 134.645 135.934 135.274Z" fill="#00B1FF"/>
<path d="M116.238 123.449C116.238 127.155 117.636 130.533 119.93 133.088C120.667 133.908 121.495 134.645 122.402 135.274C124.36 136.645 126.671 137.539 129.167 137.796C129.656 137.846 130.153 137.87 130.654 137.87C132.645 137.87 134.547 137.465 136.273 136.732L135.934 135.274C136.837 134.645 137.665 133.912 138.402 133.092C140.7 130.538 142.098 127.159 142.098 123.449C142.098 115.992 136.434 109.856 129.167 109.106C121.905 109.852 116.238 115.988 116.238 123.449Z" fill="#002189"/>
<path d="M136.273 136.732L135.934 135.274C136.837 134.645 137.665 133.912 138.402 133.092L135.143 119.02H126.167L122.402 135.274L122.063 136.736L117.173 157.853H141.163L136.273 136.732Z" fill="#002189"/>
<g opacity="0.01">
<path d="M132.693 177.063L134.347 178.634L124.611 188.883L122.957 187.311L132.693 177.063Z" fill="#52606C"/>
<path d="M122.208 179.063L136.716 183.651L136.028 185.827L121.52 181.239L122.208 179.063Z" fill="#52606C"/>
</g>
<g opacity="0.01">
<path d="M103.693 135.712L105.971 135.858L104.941 151.911L102.663 151.765L103.693 135.712Z" fill="#52606C"/>
<path d="M111.257 140.283L111.969 142.451L97.881 147.085L97.169 144.918L111.257 140.283Z" fill="#52606C"/>
</g>
<g opacity="0.01">
<path d="M75.3572 117.528L79.7081 131.381L77.5322 132.064L73.1802 118.211L75.3572 117.528Z" fill="#52606C"/>
<path d="M79.5932 120.119L81.2021 121.735L72.4992 130.393L70.8903 128.776L79.5932 120.119Z" fill="#52606C"/>
</g>
<g opacity="0.01">
<path d="M73.7182 145.799L74.6162 147.896L60.9523 153.747L60.0544 151.65L73.7182 145.799Z" fill="#52606C"/>
<path d="M64.3203 143.572L73.2133 151.621L71.6823 153.312L62.7894 145.264L64.3203 143.572Z" fill="#52606C"/>
</g>
<g opacity="0.01">
<path d="M61.0043 164.631L62.0343 180.261L59.7583 180.41L58.7283 164.781L61.0043 164.631Z" fill="#52606C"/>
<path d="M56.8834 167.364L68.4893 175.086L67.2253 176.986L55.6194 169.264L56.8834 167.364Z" fill="#52606C"/>
</g>
<g opacity="0.01">
<path d="M33.5445 152.584L45.2424 155.487L44.6924 157.702L32.9946 154.798L33.5445 152.584Z" fill="#52606C"/>
<path d="M42.2175 149.193L44.1785 150.359L37.8605 160.983L35.8996 159.817L42.2175 149.193Z" fill="#52606C"/>
</g>
<g opacity="0.01">
<path d="M42.6735 126.077L49.4135 137.262L47.4595 138.441L40.7195 127.254L42.6735 126.077Z" fill="#52606C"/>
<path d="M52.3864 130.291L52.6644 132.555L38.9506 134.239L38.6726 131.975L52.3864 130.291Z" fill="#52606C"/>
</g>
<g opacity="0.01">
<path d="M51.6745 99.085L53.8805 99.223L53.1095 112.021L50.9045 111.882L51.6745 99.085Z" fill="#52606C"/>
<path d="M58.8134 102.624L59.4154 104.825L45.0455 108.756L44.4436 106.555L58.8134 102.624Z" fill="#52606C"/>
</g>
<g opacity="0.01">
<path d="M8.23787 96.2275L20.1248 105.541L18.7168 107.337L6.83089 98.0235L8.23787 96.2275Z" fill="#52606C"/>
<path d="M13.9428 93.9512L15.3008 109.349L13.0288 109.549L11.6708 94.1522L13.9428 93.9512Z" fill="#52606C"/>
</g>
<g opacity="0.01">
<path d="M0.706956 130.882L13.8198 135.158L13.1128 137.327L-3.71933e-05 133.051L0.706956 130.882Z" fill="#52606C"/>
<path d="M9.73782 128.413L11.3988 129.978L3.09989 138.781L1.4399 137.216L9.73782 128.413Z" fill="#52606C"/>
</g>
<g opacity="0.01">
<path d="M14.1938 156.159L16.1328 157.361L8.80589 169.183L6.86691 167.981L14.1938 156.159Z" fill="#52606C"/>
<path d="M3.91891 158.794L21.1517 163.447L20.5567 165.65L3.32591 160.997L3.91891 158.794Z" fill="#52606C"/>
</g>
<g opacity="0.01">
<path d="M15.5948 183.48L32.6447 188.144L32.0417 190.345L14.9928 185.68L15.5948 183.48Z" fill="#52606C"/>
<path d="M27.0327 180.565L29.0826 181.567L23.4967 192.995L21.4467 191.993L27.0327 180.565Z" fill="#52606C"/>
</g>
<g opacity="0.01">
<path d="M232.922 175.155L234.599 176.701L225.65 186.41L223.973 184.864L232.922 175.155Z" fill="#52606C"/>
<path d="M225.247 176.617L237.988 184.2L236.821 186.161L224.08 178.577L225.247 176.617Z" fill="#52606C"/>
</g>
<g opacity="0.01">
<path d="M188.351 141.122L189.147 143.261L175.895 148.192L175.099 146.053L188.351 141.122Z" fill="#52606C"/>
<path d="M183.458 138.997L186.045 151.814L183.808 152.267L181.221 139.448L183.458 138.997Z" fill="#52606C"/>
</g>
<g opacity="0.01">
<path d="M206.876 129.062L209.073 129.678L204.636 145.517L202.439 144.902L206.876 129.062Z" fill="#52606C"/>
<path d="M214.034 135.132L214.125 137.411L201.8 137.904L201.709 135.625L214.034 135.132Z" fill="#52606C"/>
</g>
<g opacity="0.01">
<path d="M177.01 104.526L183.356 123.264L181.196 123.996L174.85 105.258L177.01 104.526Z" fill="#52606C"/>
<path d="M184.206 109.255L185.641 111.029L175.288 119.409L173.853 117.636L184.206 109.255Z" fill="#52606C"/>
</g>
<g opacity="0.01">
<path d="M147.777 63.8145L149.227 80.7573L146.955 80.9523L145.505 64.0095L147.777 63.8145Z" fill="#52606C"/>
<path d="M140.899 67.2891L153.521 77.572L152.079 79.3409L139.459 69.058L140.899 67.2891Z" fill="#52606C"/>
</g>
<g opacity="0.01">
<path d="M185.389 55.5137L187.309 56.7467L179.845 68.3635L177.925 67.1306L185.389 55.5137Z" fill="#52606C"/>
<path d="M179.029 53.3408L187.186 67.4977L185.209 68.6367L177.052 54.4798L179.029 53.3408Z" fill="#52606C"/>
</g>
<g opacity="0.01">
<path d="M209.64 62.5469L211.18 75.1647L208.916 75.4407L207.376 62.8229L209.64 62.5469Z" fill="#52606C"/>
<path d="M214.025 63.79L215.46 65.563L205.763 73.4119L204.328 71.639L214.025 63.79Z" fill="#52606C"/>
</g>
<g opacity="0.01">
<path d="M240.062 83.8447L242.214 84.6017L236.829 99.9126L234.677 99.1556L240.062 83.8447Z" fill="#52606C"/>
<path d="M231.271 90.4775L245.66 92.3265L245.37 94.5895L230.981 92.7405L231.271 90.4775Z" fill="#52606C"/>
</g>
<g opacity="0.01">
<path d="M240.383 138.144L244.461 152.07L242.271 152.711L238.193 138.785L240.383 138.144Z" fill="#52606C"/>
<path d="M233.534 143.572L249.999 144.801L249.829 147.076L233.364 145.847L233.534 143.572Z" fill="#52606C"/>
</g>
<path d="M224.707 112.158C224.707 112.158 224.707 112.158 224.707 112.158C224.707 112.158 224.707 112.157 224.707 112.157C224.707 112.157 224.707 112.158 224.707 112.158C224.707 112.158 224.707 112.158 224.707 112.158Z" fill="#006EF2"/>
<path d="M224.322 115.147C224.534 113.496 223.369 111.985 221.718 111.772C223.369 111.985 224.879 110.819 225.092 109.168C224.879 110.819 226.045 112.33 227.696 112.543C226.045 112.33 224.534 113.496 224.322 115.147Z" fill="#006EF2"/>
<path d="M185.028 26.8024C187.263 22.9865 185.981 18.0815 182.165 15.8467C185.981 18.0815 190.886 16.7999 193.121 12.984C190.886 16.7999 192.168 21.7049 195.983 23.9398C192.168 21.7049 187.263 22.9865 185.028 26.8024Z" fill="#006EF2"/>
</svg>
